<svg width="20" height="20" viewBox="0 0 20 20" fill="none" xmlns="http://www.w3.org/2000/svg">
<path d="M15.0004 5.96675C14.9504 5.95842 14.8921 5.95842 14.8421 5.96675C13.6921 5.92508 12.7754 4.98342 12.7754 3.81675C12.7754 2.62508 13.7337 1.66675 14.9254 1.66675C16.1171 1.66675 17.0754 2.63342 17.0754 3.81675C17.0671 4.98342 16.1504 5.92508 15.0004 5.96675Z" stroke="#292D32" stroke-width="1.5" stroke-linecap="round" stroke-linejoin="round"/>
<path d="M14.1422 12.0335C15.2839 12.2252 16.5422 12.0252 17.4255 11.4335C18.6005 10.6502 18.6005 9.36688 17.4255 8.58355C16.5339 7.99188 15.2589 7.79188 14.1172 7.99188" stroke="#292D32" stroke-width="1.5" stroke-linecap="round" stroke-linejoin="round"/>
<path d="M4.97417 5.96675C5.02417 5.95842 5.0825 5.95842 5.1325 5.96675C6.2825 5.92508 7.19917 4.98342 7.19917 3.81675C7.19917 2.62508 6.24084 1.66675 5.04917 1.66675C3.8575 1.66675 2.89917 2.63342 2.89917 3.81675C2.9075 4.98342 3.82417 5.92508 4.97417 5.96675Z" stroke="#292D32" stroke-width="1.5" stroke-linecap="round" stroke-linejoin="round"/>
<path d="M5.83255 12.0335C4.69088 12.2252 3.43255 12.0252 2.54922 11.4335C1.37422 10.6502 1.37422 9.36688 2.54922 8.58355C3.44089 7.99188 4.71588 7.79188 5.85755 7.99188" stroke="#292D32" stroke-width="1.5" stroke-linecap="round" stroke-linejoin="round"/>
<path d="M10.0006 12.1916C9.95063 12.1833 9.8923 12.1833 9.8423 12.1916C8.6923 12.1499 7.77563 11.2083 7.77563 10.0416C7.77563 8.84994 8.73397 7.8916 9.92563 7.8916C11.1173 7.8916 12.0756 8.85827 12.0756 10.0416C12.0673 11.2083 11.1506 12.1583 10.0006 12.1916Z" stroke="#292D32" stroke-width="1.5" stroke-linecap="round" stroke-linejoin="round"/>
<path d="M7.57559 14.8166C6.40059 15.5999 6.40059 16.8832 7.57559 17.6666C8.90892 18.5582 11.0923 18.5582 12.4256 17.6666C13.6006 16.8832 13.6006 15.5999 12.4256 14.8166C11.1006 13.9332 8.90892 13.9332 7.57559 14.8166Z" stroke="#292D32" stroke-width="1.5" stroke-linecap="round" stroke-linejoin="round"/>
</svg>
